<?xml version="1.0" encoding="UTF-8" standalone="no"?><svg xmlns="http://www.w3.org/2000/svg" xmlns:xlink="http://www.w3.org/1999/xlink" contentScriptType="application/ecmascript" contentStyleType="text/css" height="926px" preserveAspectRatio="none" style="width:771px;height:926px;" version="1.1" viewBox="0 0 771 926" width="771px" zoomAndPan="magnify"><defs><filter height="300%" id="f144x7ny9qhs52" width="300%" x="-1" y="-1"><feGaussianBlur result="blurOut" stdDeviation="2.0"/><feColorMatrix in="blurOut" result="blurOut2" type="matrix" values="0 0 0 0 0 0 0 0 0 0 0 0 0 0 0 0 0 0 .4 0"/><feOffset dx="4.0" dy="4.0" in="blurOut2" result="blurOut3"/><feBlend in="SourceGraphic" in2="blurOut3" mode="normal"/></filter></defs><g><!--MD5=[3f3a226c7d3703971b7a371a9711f24f]
cluster Flightgear Control App--><rect fill="#FFFFFF" filter="url(#f144x7ny9qhs52)" height="907" style="stroke:#000000;stroke-width:1.5;" width="745" x="14.69" y="7"/><text fill="#000000" font-family="sans-serif" font-size="14" font-weight="bold" lengthAdjust="spacing" textLength="157" x="308.69" y="23.5332">Flightgear Control App</text><!--MD5=[e2a75efa8a0f57c2afae8bf75386f79c]
cluster views--><rect fill="#AAEEFD" filter="url(#f144x7ny9qhs52)" height="124" style="stroke:#000000;stroke-width:1.5;" width="170" x="403.69" y="52"/><path d="M454.69,52 L454.69,63.0195 L444.69,73.0195 L403.69,73.0195 " fill="none" style="stroke:#000000;stroke-width:1.5;"/><text fill="#000000" font-family="sans-serif" font-size="14" font-weight="bold" lengthAdjust="spacing" textLength="41" x="406.69" y="67.5332">views</text><!--MD5=[fbf6a68e4834dd12b2a3bd672d5820d9]
cluster view model--><rect fill="#AAEEFD" filter="url(#f144x7ny9qhs52)" height="224" style="stroke:#000000;stroke-width:1.5;" width="218" x="272.69" y="200"/><path d="M361.69,200 L361.69,211.0195 L351.69,221.0195 L272.69,221.0195 " fill="none" style="stroke:#000000;stroke-width:1.5;"/><text fill="#000000" font-family="sans-serif" font-size="14" font-weight="bold" lengthAdjust="spacing" textLength="79" x="275.69" y="215.5332">view model</text><!--MD5=[a60570e4b426f702ccbb0d459e3b9417]
cluster models--><rect fill="#AAEEFD" filter="url(#f144x7ny9qhs52)" height="442" style="stroke:#000000;stroke-width:1.5;" width="439" x="51.69" y="448"/><path d="M112.69,448 L112.69,459.0195 L102.69,469.0195 L51.69,469.0195 " fill="none" style="stroke:#000000;stroke-width:1.5;"/><text fill="#000000" font-family="sans-serif" font-size="14" font-weight="bold" lengthAdjust="spacing" textLength="51" x="54.69" y="463.5332">models</text><!--MD5=[5312434181f8881ead0294f1195038c7]
cluster layout--><rect fill="#FFFFFF" filter="url(#f144x7ny9qhs52)" height="348.5" style="stroke:#000000;stroke-width:1.5;" width="221" x="514.69" y="242.5"/><text fill="#000000" font-family="sans-serif" font-size="14" font-weight="bold" lengthAdjust="spacing" textLength="42" x="604.19" y="259.0332">layout</text><!--MD5=[5db00888549904919e3a09c35d77129e]
class MainActivity--><rect codeLine="5" fill="#FEFECE" filter="url(#f144x7ny9qhs52)" height="71.0488" id="MainActivity" style="stroke:#A80036;stroke-width:1.5;" width="138" x="419.69" y="89"/><ellipse cx="454.94" cy="109.4453" fill="#ADD1B2" rx="11" ry="11" style="stroke:#A80036;stroke-width:1.0;"/><path d="M456.94,105.9453 Q457.1431,105.4453 457.3775,105.1953 Q457.6119,104.9453 457.8775,104.9453 Q458.3463,104.9453 458.6431,105.2266 Q458.94,105.5078 458.94,106.1641 L458.94,107.7266 Q458.94,108.3828 458.6588,108.6641 Q458.3775,108.9453 457.94,108.9453 Q457.5494,108.9453 457.2994,108.7734 Q457.0494,108.6016 456.94,108.1484 Q456.8931,107.8359 456.7213,107.6641 Q456.4088,107.3359 455.8463,107.1484 Q455.2838,106.9453 454.7213,106.9453 Q454.0181,106.9453 453.4244,107.2266 Q452.8463,107.5078 452.3931,108.1328 Q451.94,108.7578 451.94,109.6172 L451.94,110.5391 Q451.94,111.5703 452.7838,112.2578 Q453.6275,112.9453 455.1275,112.9453 Q456.0181,112.9453 456.6431,112.7422 Q457.0025,112.6328 457.4088,112.2734 Q457.6744,112.0703 457.815,112.0078 Q457.9556,111.9453 458.1275,111.9453 Q458.4556,111.9453 458.69,112.2109 Q458.94,112.4609 458.94,112.8203 Q458.94,113.1641 458.5963,113.5703 Q458.0963,114.1641 457.2994,114.4922 Q456.2525,114.9453 454.9713,114.9453 Q453.4713,114.9453 452.2681,114.3516 Q451.2994,113.8828 450.6119,112.8672 Q449.94,111.8516 449.94,110.6484 L449.94,109.5547 Q449.94,108.3047 450.5338,107.2109 Q451.1431,106.1172 452.19,105.5391 Q453.2525,104.9453 454.44,104.9453 Q455.1588,104.9453 455.7838,105.1953 Q456.4088,105.4453 456.94,105.9453 Z " fill="#000000"/><text fill="#000000" font-family="sans-serif" font-size="12" font-style="italic" lengthAdjust="spacing" textLength="52" x="477.94" y="106.457">«Activity»</text><text fill="#000000" font-family="sans-serif" font-size="12" lengthAdjust="spacing" textLength="61" x="473.44" y="121.9023">MainActivity</text><line style="stroke:#A80036;stroke-width:1.5;" x1="420.69" x2="556.69" y1="129.8906" y2="129.8906"/><ellipse cx="430.69" cy="140.8906" fill="none" rx="3" ry="3" style="stroke:#038048;stroke-width:1.0;"/><text fill="#000000" font-family="sans-serif" font-size="11" lengthAdjust="spacing" textLength="112" x="439.69" y="145.3096">ViewModel: viewModel</text><line style="stroke:#A80036;stroke-width:1.5;" x1="420.69" x2="556.69" y1="152.0488" y2="152.0488"/><!--MD5=[b1d46488418bc0cd55cf54b5fc017696]
class ViewModel--><rect codeLine="12" fill="#FEFECE" filter="url(#f144x7ny9qhs52)" height="171.4238" id="ViewModel" style="stroke:#A80036;stroke-width:1.5;" width="186" x="288.69" y="237"/><ellipse cx="347.94" cy="253" fill="#ADD1B2" rx="11" ry="11" style="stroke:#A80036;stroke-width:1.0;"/><path d="M349.94,249.5 Q350.1431,249 350.3775,248.75 Q350.6119,248.5 350.8775,248.5 Q351.3463,248.5 351.6431,248.7813 Q351.94,249.0625 351.94,249.7188 L351.94,251.2813 Q351.94,251.9375 351.6588,252.2188 Q351.3775,252.5 350.94,252.5 Q350.5494,252.5 350.2994,252.3281 Q350.0494,252.1563 349.94,251.7031 Q349.8931,251.3906 349.7213,251.2188 Q349.4088,250.8906 348.8463,250.7031 Q348.2838,250.5 347.7213,250.5 Q347.0181,250.5 346.4244,250.7813 Q345.8463,251.0625 345.3931,251.6875 Q344.94,252.3125 344.94,253.1719 L344.94,254.0938 Q344.94,255.125 345.7838,255.8125 Q346.6275,256.5 348.1275,256.5 Q349.0181,256.5 349.6431,256.2969 Q350.0025,256.1875 350.4088,255.8281 Q350.6744,255.625 350.815,255.5625 Q350.9556,255.5 351.1275,255.5 Q351.4556,255.5 351.69,255.7656 Q351.94,256.0156 351.94,256.375 Q351.94,256.7188 351.5963,257.125 Q351.0963,257.7188 350.2994,258.0469 Q349.2525,258.5 347.9713,258.5 Q346.4713,258.5 345.2681,257.9063 Q344.2994,257.4375 343.6119,256.4219 Q342.94,255.4063 342.94,254.2031 L342.94,253.1094 Q342.94,251.8594 343.5338,250.7656 Q344.1431,249.6719 345.19,249.0938 Q346.2525,248.5 347.44,248.5 Q348.1588,248.5 348.7838,248.75 Q349.4088,249 349.94,249.5 Z " fill="#000000"/><text fill="#000000" font-family="sans-serif" font-size="12" lengthAdjust="spacing" textLength="59" x="368.44" y="257.7344">ViewModel</text><line style="stroke:#A80036;stroke-width:1.5;" x1="289.69" x2="473.69" y1="269" y2="269"/><rect fill="none" height="6" style="stroke:#C82930;stroke-width:1.0;" width="6" x="296.69" y="277"/><text fill="#000000" font-family="sans-serif" font-size="11" lengthAdjust="spacing" textLength="106" x="308.69" y="284.4189">ExecutorService: pool</text><rect fill="none" height="6" style="stroke:#C82930;stroke-width:1.0;" width="6" x="296.69" y="291.1582"/><text fill="#000000" font-family="sans-serif" font-size="11" lengthAdjust="spacing" textLength="55" x="308.69" y="298.5771">String: host</text><rect fill="none" height="6" style="stroke:#C82930;stroke-width:1.0;" width="6" x="296.69" y="305.3164"/><text fill="#000000" font-family="sans-serif" font-size="11" lengthAdjust="spacing" textLength="36" x="308.69" y="312.7354">Int: port</text><rect fill="none" height="6" style="stroke:#C82930;stroke-width:1.0;" width="6" x="296.69" y="319.4746"/><text fill="#000000" font-family="sans-serif" font-size="11" lengthAdjust="spacing" textLength="160" x="308.69" y="326.8936">FlightgearConnection: connection</text><rect fill="none" height="6" style="stroke:#C82930;stroke-width:1.0;" width="6" x="296.69" y="333.6328"/><text fill="#000000" font-family="sans-serif" font-size="11" lengthAdjust="spacing" textLength="109" x="308.69" y="341.0518">JoystickModel: joystick</text><ellipse cx="299.69" cy="368.9492" fill="#84BE84" rx="3" ry="3" style="stroke:#038048;stroke-width:1.0;"/><text fill="#000000" font-family="sans-serif" font-size="11" lengthAdjust="spacing" textLength="45" x="308.69" y="373.3682">connect()</text><ellipse cx="299.69" cy="383.1074" fill="#84BE84" rx="3" ry="3" style="stroke:#038048;stroke-width:1.0;"/><text fill="#000000" font-family="sans-serif" font-size="11" lengthAdjust="spacing" textLength="38" x="308.69" y="387.5264">setBar()</text><ellipse cx="299.69" cy="397.2656" fill="#84BE84" rx="3" ry="3" style="stroke:#038048;stroke-width:1.0;"/><text fill="#000000" font-family="sans-serif" font-size="11" lengthAdjust="spacing" textLength="60" x="308.69" y="401.6846">setJoystick()</text><line style="stroke:#A80036;stroke-width:1.0;" x1="289.69" x2="361.19" y1="354.8701" y2="354.8701"/><line style="stroke:#A80036;stroke-width:1.0;" x1="289.69" x2="361.19" y1="356.8701" y2="356.8701"/><text fill="#000000" font-family="sans-serif" font-size="11" lengthAdjust="spacing" textLength="41" x="361.19" y="358.71">methods</text><line style="stroke:#A80036;stroke-width:1.0;" x1="402.19" x2="473.69" y1="354.8701" y2="354.8701"/><line style="stroke:#A80036;stroke-width:1.0;" x1="402.19" x2="473.69" y1="356.8701" y2="356.8701"/><!--MD5=[81206f689ecc6865045e115347293eeb]
class FlightgearConnection--><rect codeLine="27" fill="#FEFECE" filter="url(#f144x7ny9qhs52)" height="199.7402" id="FlightgearConnection" style="stroke:#A80036;stroke-width:1.5;" width="150" x="85.69" y="674"/><ellipse cx="100.69" cy="690" fill="#ADD1B2" rx="11" ry="11" style="stroke:#A80036;stroke-width:1.0;"/><path d="M102.69,686.5 Q102.8931,686 103.1275,685.75 Q103.3619,685.5 103.6275,685.5 Q104.0963,685.5 104.3931,685.7813 Q104.69,686.0625 104.69,686.7188 L104.69,688.2813 Q104.69,688.9375 104.4088,689.2188 Q104.1275,689.5 103.69,689.5 Q103.2994,689.5 103.0494,689.3281 Q102.7994,689.1563 102.69,688.7031 Q102.6431,688.3906 102.4713,688.2188 Q102.1588,687.8906 101.5963,687.7031 Q101.0338,687.5 100.4713,687.5 Q99.7681,687.5 99.1744,687.7813 Q98.5963,688.0625 98.1431,688.6875 Q97.69,689.3125 97.69,690.1719 L97.69,691.0938 Q97.69,692.125 98.5338,692.8125 Q99.3775,693.5 100.8775,693.5 Q101.7681,693.5 102.3931,693.2969 Q102.7525,693.1875 103.1588,692.8281 Q103.4244,692.625 103.565,692.5625 Q103.7056,692.5 103.8775,692.5 Q104.2056,692.5 104.44,692.7656 Q104.69,693.0156 104.69,693.375 Q104.69,693.7188 104.3463,694.125 Q103.8463,694.7188 103.0494,695.0469 Q102.0025,695.5 100.7213,695.5 Q99.2213,695.5 98.0181,694.9063 Q97.0494,694.4375 96.3619,693.4219 Q95.69,692.4063 95.69,691.2031 L95.69,690.1094 Q95.69,688.8594 96.2838,687.7656 Q96.8931,686.6719 97.94,686.0938 Q99.0025,685.5 100.19,685.5 Q100.9088,685.5 101.5338,685.75 Q102.1588,686 102.69,686.5 Z " fill="#000000"/><text fill="#000000" font-family="sans-serif" font-size="12" lengthAdjust="spacing" textLength="118" x="114.69" y="694.7344">FlightgearConnection</text><line style="stroke:#A80036;stroke-width:1.5;" x1="86.69" x2="234.69" y1="706" y2="706"/><rect fill="none" height="6" style="stroke:#C82930;stroke-width:1.0;" width="6" x="93.69" y="714"/><text fill="#000000" font-family="sans-serif" font-size="11" lengthAdjust="spacing" textLength="106" x="105.69" y="721.4189">ExecutorService: pool</text><rect fill="none" height="6" style="stroke:#C82930;stroke-width:1.0;" width="6" x="93.69" y="728.1582"/><text fill="#000000" font-family="sans-serif" font-size="11" lengthAdjust="spacing" textLength="55" x="105.69" y="735.5771">String: host</text><rect fill="none" height="6" style="stroke:#C82930;stroke-width:1.0;" width="6" x="93.69" y="742.3164"/><text fill="#000000" font-family="sans-serif" font-size="11" lengthAdjust="spacing" textLength="36" x="105.69" y="749.7354">Int: port</text><rect fill="none" height="6" style="stroke:#C82930;stroke-width:1.0;" width="6" x="93.69" y="756.4746"/><text fill="#000000" font-family="sans-serif" font-size="11" lengthAdjust="spacing" textLength="49" x="105.69" y="763.8936">Socket: fg</text><rect fill="none" height="6" style="stroke:#C82930;stroke-width:1.0;" width="6" x="93.69" y="770.6328"/><text fill="#000000" font-family="sans-serif" font-size="11" lengthAdjust="spacing" textLength="71" x="105.69" y="778.0518">PrintWriter: out</text><rect fill="#F24D5C" height="6" style="stroke:#C82930;stroke-width:1.0;" width="6" x="93.69" y="802.9492"/><text fill="#000000" font-family="sans-serif" font-size="11" lengthAdjust="spacing" textLength="64" x="105.69" y="810.3682">openStream()</text><ellipse cx="96.69" cy="820.1074" fill="#84BE84" rx="3" ry="3" style="stroke:#038048;stroke-width:1.0;"/><text fill="#000000" font-family="sans-serif" font-size="11" lengthAdjust="spacing" textLength="45" x="105.69" y="824.5264">connect()</text><ellipse cx="96.69" cy="834.2656" fill="#84BE84" rx="3" ry="3" style="stroke:#038048;stroke-width:1.0;"/><text fill="#000000" font-family="sans-serif" font-size="11" lengthAdjust="spacing" textLength="38" x="105.69" y="838.6846">isAlive()</text><ellipse cx="96.69" cy="848.4238" fill="#84BE84" rx="3" ry="3" style="stroke:#038048;stroke-width:1.0;"/><text fill="#000000" font-family="sans-serif" font-size="11" lengthAdjust="spacing" textLength="32" x="105.69" y="852.8428">close()</text><ellipse cx="96.69" cy="862.582" fill="#84BE84" rx="3" ry="3" style="stroke:#038048;stroke-width:1.0;"/><text fill="#000000" font-family="sans-serif" font-size="11" lengthAdjust="spacing" textLength="30" x="105.69" y="867.001">send()</text><line style="stroke:#A80036;stroke-width:1.0;" x1="86.69" x2="140.19" y1="791.8701" y2="791.8701"/><line style="stroke:#A80036;stroke-width:1.0;" x1="86.69" x2="140.19" y1="793.8701" y2="793.8701"/><text fill="#000000" font-family="sans-serif" font-size="11" lengthAdjust="spacing" textLength="41" x="140.19" y="795.71">methods</text><line style="stroke:#A80036;stroke-width:1.0;" x1="181.19" x2="234.69" y1="791.8701" y2="791.8701"/><line style="stroke:#A80036;stroke-width:1.0;" x1="181.19" x2="234.69" y1="793.8701" y2="793.8701"/><!--MD5=[8b774d84f1333c4fe8249c211893d3ef]
class JoystickModel--><rect codeLine="43" fill="#FEFECE" filter="url(#f144x7ny9qhs52)" height="86.4746" id="JoystickModel" style="stroke:#A80036;stroke-width:1.5;" width="186" x="288.69" y="506.5"/><ellipse cx="339.44" cy="522.5" fill="#ADD1B2" rx="11" ry="11" style="stroke:#A80036;stroke-width:1.0;"/><path d="M341.44,519 Q341.6431,518.5 341.8775,518.25 Q342.1119,518 342.3775,518 Q342.8463,518 343.1431,518.2813 Q343.44,518.5625 343.44,519.2188 L343.44,520.7813 Q343.44,521.4375 343.1588,521.7188 Q342.8775,522 342.44,522 Q342.0494,522 341.7994,521.8281 Q341.5494,521.6563 341.44,521.2031 Q341.3931,520.8906 341.2213,520.7188 Q340.9088,520.3906 340.3463,520.2031 Q339.7838,520 339.2213,520 Q338.5181,520 337.9244,520.2813 Q337.3463,520.5625 336.8931,521.1875 Q336.44,521.8125 336.44,522.6719 L336.44,523.5938 Q336.44,524.625 337.2838,525.3125 Q338.1275,526 339.6275,526 Q340.5181,526 341.1431,525.7969 Q341.5025,525.6875 341.9088,525.3281 Q342.1744,525.125 342.315,525.0625 Q342.4556,525 342.6275,525 Q342.9556,525 343.19,525.2656 Q343.44,525.5156 343.44,525.875 Q343.44,526.2188 343.0963,526.625 Q342.5963,527.2188 341.7994,527.5469 Q340.7525,528 339.4713,528 Q337.9713,528 336.7681,527.4063 Q335.7994,526.9375 335.1119,525.9219 Q334.44,524.9063 334.44,523.7031 L334.44,522.6094 Q334.44,521.3594 335.0338,520.2656 Q335.6431,519.1719 336.69,518.5938 Q337.7525,518 338.94,518 Q339.6588,518 340.2838,518.25 Q340.9088,518.5 341.44,519 Z " fill="#000000"/><text fill="#000000" font-family="sans-serif" font-size="12" lengthAdjust="spacing" textLength="76" x="359.94" y="527.2344">JoystickModel</text><line style="stroke:#A80036;stroke-width:1.5;" x1="289.69" x2="473.69" y1="538.5" y2="538.5"/><rect fill="none" height="6" style="stroke:#C82930;stroke-width:1.0;" width="6" x="296.69" y="546.5"/><text fill="#000000" font-family="sans-serif" font-size="11" lengthAdjust="spacing" textLength="160" x="308.69" y="553.9189">FlightgearConnection: connection</text><ellipse cx="299.69" cy="581.8164" fill="#84BE84" rx="3" ry="3" style="stroke:#038048;stroke-width:1.0;"/><text fill="#000000" font-family="sans-serif" font-size="11" lengthAdjust="spacing" textLength="60" x="308.69" y="586.2354">setJoystick()</text><line style="stroke:#A80036;stroke-width:1.0;" x1="289.69" x2="361.19" y1="567.7373" y2="567.7373"/><line style="stroke:#A80036;stroke-width:1.0;" x1="289.69" x2="361.19" y1="569.7373" y2="569.7373"/><text fill="#000000" font-family="sans-serif" font-size="11" lengthAdjust="spacing" textLength="41" x="361.19" y="571.5771">methods</text><line style="stroke:#A80036;stroke-width:1.0;" x1="402.19" x2="473.69" y1="567.7373" y2="567.7373"/><line style="stroke:#A80036;stroke-width:1.0;" x1="402.19" x2="473.69" y1="569.7373" y2="569.7373"/><!--MD5=[65894c4e92e29a489fddbac507a334f8]
class CustomSeekBar--><rect codeLine="51" fill="#FEFECE" filter="url(#f144x7ny9qhs52)" height="128.9492" id="CustomSeekBar" style="stroke:#A80036;stroke-width:1.5;" width="186" x="67.69" y="485"/><ellipse cx="111.04" cy="501" fill="#ADD1B2" rx="11" ry="11" style="stroke:#A80036;stroke-width:1.0;"/><path d="M113.04,497.5 Q113.2431,497 113.4775,496.75 Q113.7119,496.5 113.9775,496.5 Q114.4462,496.5 114.7431,496.7813 Q115.04,497.0625 115.04,497.7188 L115.04,499.2813 Q115.04,499.9375 114.7587,500.2188 Q114.4775,500.5 114.04,500.5 Q113.6494,500.5 113.3994,500.3281 Q113.1494,500.1563 113.04,499.7031 Q112.9931,499.3906 112.8212,499.2188 Q112.5087,498.8906 111.9462,498.7031 Q111.3837,498.5 110.8212,498.5 Q110.1181,498.5 109.5244,498.7813 Q108.9462,499.0625 108.4931,499.6875 Q108.04,500.3125 108.04,501.1719 L108.04,502.0938 Q108.04,503.125 108.8837,503.8125 Q109.7275,504.5 111.2275,504.5 Q112.1181,504.5 112.7431,504.2969 Q113.1025,504.1875 113.5087,503.8281 Q113.7744,503.625 113.915,503.5625 Q114.0556,503.5 114.2275,503.5 Q114.5556,503.5 114.79,503.7656 Q115.04,504.0156 115.04,504.375 Q115.04,504.7188 114.6962,505.125 Q114.1962,505.7188 113.3994,506.0469 Q112.3525,506.5 111.0712,506.5 Q109.5712,506.5 108.3681,505.9063 Q107.3994,505.4375 106.7119,504.4219 Q106.04,503.4063 106.04,502.2031 L106.04,501.1094 Q106.04,499.8594 106.6337,498.7656 Q107.2431,497.6719 108.29,497.0938 Q109.3525,496.5 110.54,496.5 Q111.2587,496.5 111.8837,496.75 Q112.5087,497 113.04,497.5 Z " fill="#000000"/><text fill="#000000" font-family="sans-serif" font-size="12" lengthAdjust="spacing" textLength="91" x="131.34" y="505.7344">CustomSeekBar</text><line style="stroke:#A80036;stroke-width:1.5;" x1="68.69" x2="252.69" y1="517" y2="517"/><rect fill="none" height="6" style="stroke:#C82930;stroke-width:1.0;" width="6" x="75.69" y="525"/><text fill="#000000" font-family="sans-serif" font-size="11" lengthAdjust="spacing" textLength="63" x="87.69" y="532.4189">SeekBar: bar</text><rect fill="none" height="6" style="stroke:#C82930;stroke-width:1.0;" width="6" x="75.69" y="539.1582"/><text fill="#000000" font-family="sans-serif" font-size="11" lengthAdjust="spacing" textLength="160" x="87.69" y="546.5771">FlightgearConnection: connection</text><rect fill="none" height="6" style="stroke:#C82930;stroke-width:1.0;" width="6" x="75.69" y="553.3164"/><text fill="#000000" font-family="sans-serif" font-size="11" lengthAdjust="spacing" textLength="78" x="87.69" y="560.7354">String: message</text><rect fill="#F24D5C" height="6" style="stroke:#C82930;stroke-width:1.0;" width="6" x="75.69" y="585.6328"/><text fill="#000000" font-family="sans-serif" font-size="11" lengthAdjust="spacing" textLength="62" x="87.69" y="593.0518">executeBar()</text><ellipse cx="78.69" cy="602.791" fill="#84BE84" rx="3" ry="3" style="stroke:#038048;stroke-width:1.0;"/><text fill="#000000" font-family="sans-serif" font-size="11" lengthAdjust="spacing" textLength="49" x="87.69" y="607.21">getValue()</text><line style="stroke:#A80036;stroke-width:1.0;" x1="68.69" x2="140.19" y1="574.5537" y2="574.5537"/><line style="stroke:#A80036;stroke-width:1.0;" x1="68.69" x2="140.19" y1="576.5537" y2="576.5537"/><text fill="#000000" font-family="sans-serif" font-size="11" lengthAdjust="spacing" textLength="41" x="140.19" y="578.3936">methods</text><line style="stroke:#A80036;stroke-width:1.0;" x1="181.19" x2="252.69" y1="574.5537" y2="574.5537"/><line style="stroke:#A80036;stroke-width:1.0;" x1="181.19" x2="252.69" y1="576.5537" y2="576.5537"/><rect fill="#FEFECE" filter="url(#f144x7ny9qhs52)" height="85.5039" style="stroke:#A80036;stroke-width:1.5;" width="131" x="531.19" y="279.5"/><text fill="#000000" font-family="sans-serif" font-size="12" font-style="italic" lengthAdjust="spacing" textLength="38" x="577.69" y="291.957">«XML»</text><text fill="#000000" font-family="sans-serif" font-size="12" lengthAdjust="spacing" textLength="69" x="562.19" y="309.4023">activity_main</text><line style="stroke:#A80036;stroke-width:1.5;" x1="532.19" x2="661.19" y1="314.3906" y2="314.3906"/><polygon fill="none" points="542.19,337.2617,546.19,341.2617,542.19,345.2617,538.19,341.2617" style="stroke:#B38D22;stroke-width:1.0;"/><text fill="#000000" font-family="sans-serif" font-size="10" lengthAdjust="spacing" textLength="62" x="551.19" y="345.6426">XML: joystick</text><polygon fill="none" points="542.19,350.1328,546.19,354.1328,542.19,358.1328,538.19,354.1328" style="stroke:#B38D22;stroke-width:1.0;"/><text fill="#000000" font-family="sans-serif" font-size="10" lengthAdjust="spacing" textLength="105" x="551.19" y="358.5137">XML: connection view</text><line style="stroke:#A80036;stroke-width:1.0;" x1="532.19" x2="578.69" y1="328.8262" y2="328.8262"/><line style="stroke:#A80036;stroke-width:1.0;" x1="532.19" x2="578.69" y1="330.8262" y2="330.8262"/><text fill="#000000" font-family="sans-serif" font-size="10" lengthAdjust="spacing" textLength="36" x="578.69" y="332.2715">include</text><line style="stroke:#A80036;stroke-width:1.0;" x1="614.69" x2="661.19" y1="328.8262" y2="328.8262"/><line style="stroke:#A80036;stroke-width:1.0;" x1="614.69" x2="661.19" y1="330.8262" y2="330.8262"/><rect fill="#FEFECE" filter="url(#f144x7ny9qhs52)" height="50.8906" style="stroke:#A80036;stroke-width:1.5;" width="54" x="530.69" y="524"/><text fill="#000000" font-family="sans-serif" font-size="12" font-style="italic" lengthAdjust="spacing" textLength="38" x="538.69" y="536.457">«XML»</text><text fill="#000000" font-family="sans-serif" font-size="12" lengthAdjust="spacing" textLength="40" x="537.69" y="553.9023">joystick</text><line style="stroke:#A80036;stroke-width:1.5;" x1="531.69" x2="583.69" y1="558.8906" y2="558.8906"/><line style="stroke:#A80036;stroke-width:1.0;stroke-dasharray:1.0,2.0;" x1="531.69" x2="583.69" y1="566.8906" y2="566.8906"/><rect fill="#FEFECE" filter="url(#f144x7ny9qhs52)" height="50.8906" style="stroke:#A80036;stroke-width:1.5;" width="100" x="619.69" y="524"/><text fill="#000000" font-family="sans-serif" font-size="12" font-style="italic" lengthAdjust="spacing" textLength="38" x="650.69" y="536.457">«XML»</text><text fill="#000000" font-family="sans-serif" font-size="12" lengthAdjust="spacing" textLength="86" x="626.69" y="553.9023">connectionView</text><line style="stroke:#A80036;stroke-width:1.5;" x1="620.69" x2="718.69" y1="558.8906" y2="558.8906"/><line style="stroke:#A80036;stroke-width:1.0;stroke-dasharray:1.0,2.0;" x1="620.69" x2="718.69" y1="566.8906" y2="566.8906"/><!--MD5=[3a1bba66eb68f82d41f988b2f8acce64]
reverse link MainActivity to ViewModel--><path codeLine="40" d="M463.49,171.66 C452.87,191.11 440.17,214.38 427.97,236.72 " fill="none" id="MainActivity-backto-ViewModel" style="stroke:#A80036;stroke-width:1.0;"/><polygon fill="#FFFFFF" points="469.81,160.09,463.4247,163.4408,464.0619,170.6237,470.4472,167.2729,469.81,160.09" style="stroke:#A80036;stroke-width:1.0;"/><!--MD5=[8355134db6ccc001ad0b9f0e5473e6d8]
reverse link ViewModel to FlightgearConnection--><path codeLine="41" d="M275.67,329.85 C199.36,340.62 101.28,368.56 50.69,440 C6,503.11 27.64,540.18 50.69,614 C58.34,638.51 71.24,662.57 85.57,684.26 " fill="none" id="ViewModel-backto-FlightgearConnection" style="stroke:#A80036;stroke-width:1.0;"/><polygon fill="#FFFFFF" points="288.69,328.14,282.2218,324.9521,276.7914,329.6966,283.2596,332.8845,288.69,328.14" style="stroke:#A80036;stroke-width:1.0;"/><!--MD5=[b5f788316a35d4999856109fd4db7ab3]
reverse link ViewModel to JoystickModel--><path codeLine="48" d="M381.69,421.35 C381.69,451.14 381.69,482.32 381.69,506.35 " fill="none" id="ViewModel-backto-JoystickModel" style="stroke:#A80036;stroke-width:1.0;"/><polygon fill="#FFFFFF" points="381.69,408.24,377.69,414.24,381.69,420.24,385.69,414.24,381.69,408.24" style="stroke:#A80036;stroke-width:1.0;"/><!--MD5=[8aea0e138273ff63d4e07580eb11ce05]
reverse link JoystickModel to FlightgearConnection--><path codeLine="49" d="M330.63,601.91 C302.52,630.21 267.11,665.86 235.9,697.28 " fill="none" id="JoystickModel-backto-FlightgearConnection" style="stroke:#A80036;stroke-width:1.0;"/><polygon fill="#FFFFFF" points="339.86,592.61,332.7945,594.0517,331.4077,601.1282,338.4733,599.6865,339.86,592.61" style="stroke:#A80036;stroke-width:1.0;"/><!--MD5=[9c85f559762fdab84fb460fc8b8af3b7]
reverse link CustomSeekBar to FlightgearConnection--><path codeLine="59" d="M160.69,627.68 C160.69,642.6 160.69,658.43 160.69,673.94 " fill="none" id="CustomSeekBar-backto-FlightgearConnection" style="stroke:#A80036;stroke-width:1.0;"/><polygon fill="#FFFFFF" points="160.69,614.26,156.69,620.26,160.69,626.26,164.69,620.26,160.69,614.26" style="stroke:#A80036;stroke-width:1.0;"/><!--MD5=[03b2b90c7dd555cc73b42dc25f496f86]
link activity_main to joystick--><path codeLine="71" d="M588.53,370.56 C580.82,415.05 569.49,480.45 562.92,518.33 " fill="none" id="activity_main-joystick" style="stroke:#A80036;stroke-width:1.0;stroke-dasharray:7.0,7.0;"/><polygon fill="#A80036" points="561.99,523.71,567.4538,515.5157,562.8352,518.782,559.569,514.1633,561.99,523.71" style="stroke:#A80036;stroke-width:1.0;"/><polygon fill="#A80036" points="589.4,365.56,583.9171,373.7415,588.5433,370.4861,591.7988,375.1123,589.4,365.56" style="stroke:#A80036;stroke-width:1.0;"/><!--MD5=[58e5b8f402723939408026507c590640]
link activity_main to connectionView--><path codeLine="75" d="M611.96,370.56 C626.45,415.23 647.78,480.98 660.05,518.79 " fill="none" id="activity_main-connectionView" style="stroke:#A80036;stroke-width:1.0;stroke-dasharray:7.0,7.0;"/><polygon fill="#A80036" points="661.65,523.71,662.6783,513.915,660.1075,518.9539,655.0686,516.383,661.65,523.71" style="stroke:#A80036;stroke-width:1.0;"/><polygon fill="#A80036" points="610.34,365.56,609.3117,375.355,611.8825,370.3161,616.9214,372.887,610.34,365.56" style="stroke:#A80036;stroke-width:1.0;"/><!--MD5=[88f052379098ffd1d6340069fcf6124c]
link MainActivity to activity_main--><path codeLine="77" d="M510.17,164.47 C527.68,196.27 552.48,241.27 571.04,274.95 " fill="none" id="MainActivity-activity_main" style="stroke:#A80036;stroke-width:1.0;stroke-dasharray:7.0,7.0;"/><polygon fill="#A80036" points="573.5,279.42,572.6504,269.6079,571.0827,275.0432,565.6474,273.4755,573.5,279.42" style="stroke:#A80036;stroke-width:1.0;"/><polygon fill="#A80036" points="507.75,160.09,508.5861,169.9033,510.1612,164.4702,515.5944,166.0453,507.75,160.09" style="stroke:#A80036;stroke-width:1.0;"/><!--MD5=[87af82afb61facb63cce7b46a6fd6326]
@startuml
'https://plantuml.com/object-diagram

package "Flightgear Control App" <<Rectangle>> {
    package "views" <<Frame>> #AAEEFD {
        class MainActivity <<Activity>> {
            + ViewModel: viewModel
        }
    }


    package "view model" <<Frame>> #AAEEFD {
        class ViewModel {
            - ExecutorService: pool
            - String: host
            - Int: port
            - FlightgearConnection: connection
            - JoystickModel: joystick
            == methods ==
            + connect()
            + setBar()
            + setJoystick()
        }
    }


    package "models" <<Frame>> #AAEEFD {
        class FlightgearConnection {
            - ExecutorService: pool
            - String: host
            - Int: port
            - Socket: fg
            - PrintWriter: out
            == methods ==
            - openStream()
            + connect()
            + isAlive()
            + close()
            + send()
        }
        MainActivity o- - ViewModel
        ViewModel o- - FlightgearConnection

        class JoystickModel {
            - FlightgearConnection: connection
            == methods ==
            +setJoystick()
        }
        ViewModel o- - JoystickModel
        JoystickModel o- - FlightgearConnection

        class CustomSeekBar {
            - SeekBar: bar
            - FlightgearConnection: connection
            - String: message
            == methods ==
            - executeBar()
            + getValue()
        }
        CustomSeekBar o- - FlightgearConnection
    }

    package layout <<Rectangle>> {
        object activity_main <<XML>> {
            == include ==
            # XML: joystick
            # XML: connection view
        }
        object joystick <<XML>> {
            ..
        }
        activity_main <..> joystick
        object connectionView <<XML>> {
            ..
        }
        activity_main <..> connectionView
    }
    MainActivity <..> activity_main
}
@enduml

@startuml

package "Flightgear Control App" <<Rectangle>> {
    package "views" <<Frame>> #AAEEFD {
        class MainActivity <<Activity>> {
            + ViewModel: viewModel
        }
    }


    package "view model" <<Frame>> #AAEEFD {
        class ViewModel {
            - ExecutorService: pool
            - String: host
            - Int: port
            - FlightgearConnection: connection
            - JoystickModel: joystick
            == methods ==
            + connect()
            + setBar()
            + setJoystick()
        }
    }


    package "models" <<Frame>> #AAEEFD {
        class FlightgearConnection {
            - ExecutorService: pool
            - String: host
            - Int: port
            - Socket: fg
            - PrintWriter: out
            == methods ==
            - openStream()
            + connect()
            + isAlive()
            + close()
            + send()
        }
        MainActivity o- - ViewModel
        ViewModel o- - FlightgearConnection

        class JoystickModel {
            - FlightgearConnection: connection
            == methods ==
            +setJoystick()
        }
        ViewModel o- - JoystickModel
        JoystickModel o- - FlightgearConnection

        class CustomSeekBar {
            - SeekBar: bar
            - FlightgearConnection: connection
            - String: message
            == methods ==
            - executeBar()
            + getValue()
        }
        CustomSeekBar o- - FlightgearConnection
    }

    package layout <<Rectangle>> {
        object activity_main <<XML>> {
            == include ==
            # XML: joystick
            # XML: connection view
        }
        object joystick <<XML>> {
            ..
        }
        activity_main <..> joystick
        object connectionView <<XML>> {
            ..
        }
        activity_main <..> connectionView
    }
    MainActivity <..> activity_main
}
@enduml

PlantUML version 1.2021.00(Sun Jan 10 12:25:05 IST 2021)
(GPL source distribution)
Java Runtime: OpenJDK Runtime Environment
JVM: OpenJDK 64-Bit Server VM
Default Encoding: Cp1255
Language: en
Country: US
--></g></svg>